<?xml version="1.0" encoding="UTF-8"?>
<svg xmlns="http://www.w3.org/2000/svg" viewBox="0 0 1400 2250" width="1400" height="2330">
  <defs>
    <marker id="arrow" markerWidth="10" markerHeight="7" refX="9" refY="3.5" orient="auto">
      <polygon points="0 0, 10 3.5, 0 7" fill="#333" />
    </marker>
    <linearGradient id="input-grad" x1="0%" y1="0%" x2="0%" y2="100%">
      <stop offset="0%" style="stop-color:#4A90D9;stop-opacity:1" />
      <stop offset="100%" style="stop-color:#357ABD;stop-opacity:1" />
    </linearGradient>
    <linearGradient id="preprocess-grad" x1="0%" y1="0%" x2="0%" y2="100%">
      <stop offset="0%" style="stop-color:#5BA4E6;stop-opacity:1" />
      <stop offset="100%" style="stop-color:#4A90D9;stop-opacity:1" />
    </linearGradient>
    <linearGradient id="assembly-grad" x1="0%" y1="0%" x2="0%" y2="100%">
      <stop offset="0%" style="stop-color:#2E8B8B;stop-opacity:1" />
      <stop offset="100%" style="stop-color:#1F6F6F;stop-opacity:1" />
    </linearGradient>
    <linearGradient id="binning-grad" x1="0%" y1="0%" x2="0%" y2="100%">
      <stop offset="0%" style="stop-color:#D46A30;stop-opacity:1" />
      <stop offset="100%" style="stop-color:#B8552A;stop-opacity:1" />
    </linearGradient>
    <linearGradient id="refinement-grad" x1="0%" y1="0%" x2="0%" y2="100%">
      <stop offset="0%" style="stop-color:#5B8C5A;stop-opacity:1" />
      <stop offset="100%" style="stop-color:#4A7A49;stop-opacity:1" />
    </linearGradient>
    <linearGradient id="analysis-grad" x1="0%" y1="0%" x2="0%" y2="100%">
      <stop offset="0%" style="stop-color:#7B5EA7;stop-opacity:1" />
      <stop offset="100%" style="stop-color:#6A4E96;stop-opacity:1" />
    </linearGradient>
    <linearGradient id="results-grad" x1="0%" y1="0%" x2="0%" y2="100%">
      <stop offset="0%" style="stop-color:#4A6FA5;stop-opacity:1" />
      <stop offset="100%" style="stop-color:#3A5F8F;stop-opacity:1" />
    </linearGradient>
    <!-- Card gradient for inner white boxes -->
    <linearGradient id="card-bg" x1="0%" y1="0%" x2="0%" y2="100%">
      <stop offset="0%" style="stop-color:#FFFFFF;stop-opacity:1" />
      <stop offset="100%" style="stop-color:#F8F9FA;stop-opacity:1" />
    </linearGradient>
    <filter id="shadow" x="-2%" y="-2%" width="104%" height="104%">
      <feDropShadow dx="2" dy="2" stdDeviation="3" flood-opacity="0.15" />
    </filter>
    <filter id="card-shadow" x="-5%" y="-5%" width="110%" height="115%">
      <feDropShadow dx="0" dy="3" stdDeviation="6" flood-color="#000000" flood-opacity="0.12" />
      <feDropShadow dx="0" dy="1" stdDeviation="3" flood-color="#000000" flood-opacity="0.10" />
      <feDropShadow dx="0" dy="0.5" stdDeviation="1" flood-color="#000000" flood-opacity="0.08" />
    </filter>
  </defs>

  <!-- Background -->
  <rect width="1400" height="2250" fill="#FAFBFC" rx="8" />

  <!-- Title -->
  <text x="700" y="50" text-anchor="middle" font-family="Arial, Helvetica, sans-serif" font-size="32" font-weight="bold"
    fill="#1A2A3A">MAGGIC Pipeline</text>
  <text x="700" y="80" text-anchor="middle" font-family="Arial, Helvetica, sans-serif" font-size="15" fill="#5A6A7A"
    font-style="italic">Metagenomically Assembled Genome Generation with Integrated Classification</text>

  <!-- SECTION 1: INPUT (height 148, +8 from original) -->
  <rect x="110" y="110" width="1180" height="148" rx="12" fill="url(#input-grad)" filter="url(#shadow)" />
  <rect x="110" y="110" width="1180" height="40" rx="12" fill="#357ABD" />
  <text x="700" y="135" text-anchor="middle" font-family="Arial, Helvetica, sans-serif" font-size="18"
    font-weight="bold" fill="white">Input</text>

  <!-- FASTQ Icon -->
  <g transform="translate(200, 160)">
    <rect x="0" y="0" width="80" height="8" rx="2" fill="#FFD700" opacity="0.9" />
    <rect x="5" y="12" width="70" height="8" rx="2" fill="#FFA500" opacity="0.9" />
    <rect x="2" y="24" width="76" height="8" rx="2" fill="#FF8C00" opacity="0.9" />
    <rect x="8" y="36" width="64" height="8" rx="2" fill="#FF6B35" opacity="0.9" />
    <rect x="0" y="48" width="80" height="8" rx="2" fill="#FF4500" opacity="0.9" />
    <rect x="4" y="60" width="72" height="8" rx="2" fill="#FFD700" opacity="0.9" />
    <text x="40" y="88" text-anchor="middle" font-family="Arial, Helvetica, sans-serif" font-size="11" fill="white">Raw
      Reads</text>
  </g>

  <line x1="320" y1="200" x2="380" y2="200" stroke="white" stroke-width="2" marker-end="url(#arrow)" />

  <rect x="390" y="168" width="200" height="70" rx="8" fill="url(#card-bg)" stroke="#4A90D9" stroke-width="1.5"
    filter="url(#card-shadow)" />
  <rect x="390" y="176" width="4" height="54" rx="2" fill="#4A90D9" />
  <text x="490" y="198" text-anchor="middle" font-family="Arial, Helvetica, sans-serif" font-size="16"
    font-weight="bold" fill="#1A2A3A">FASTQ Files</text>
  <text x="490" y="218" text-anchor="middle" font-family="Arial, Helvetica, sans-serif" font-size="11"
    fill="#5A6A7A">Illumina Single-End or Paired-End</text>

  <line x1="630" y1="200" x2="690" y2="200" stroke="white" stroke-width="2" marker-end="url(#arrow)" />

  <rect x="700" y="168" width="180" height="70" rx="8" fill="url(#card-bg)" stroke="#4A90D9" stroke-width="1.5"
    filter="url(#card-shadow)" />
  <rect x="700" y="176" width="4" height="54" rx="2" fill="#4A90D9" />
  <text x="790" y="198" text-anchor="middle" font-family="Arial, Helvetica, sans-serif" font-size="14"
    font-weight="bold" fill="#1A2A3A">Generate Samplesheet</text>
  <text x="790" y="218" text-anchor="middle" font-family="Arial, Helvetica, sans-serif" font-size="11"
    fill="#5A6A7A">Automatic Sample Grouping</text>

  <line x1="920" y1="200" x2="980" y2="200" stroke="white" stroke-width="2" marker-end="url(#arrow)" />

  <rect x="990" y="168" width="160" height="70" rx="8" fill="url(#card-bg)" stroke="#4A90D9" stroke-width="1.5"
    filter="url(#card-shadow)" />
  <rect x="990" y="176" width="4" height="54" rx="2" fill="#4A90D9" />
  <text x="1070" y="198" text-anchor="middle" font-family="Arial, Helvetica, sans-serif" font-size="14"
    font-weight="bold" fill="#1A2A3A">Validate</text>
  <text x="1070" y="218" text-anchor="middle" font-family="Arial, Helvetica, sans-serif" font-size="11"
    fill="#5A6A7A">Samplesheet Check</text>

  <!-- Arrow down shifted by +8 -->
  <line x1="700" y1="258" x2="700" y2="298" stroke="#333" stroke-width="2.5" marker-end="url(#arrow)" />

  <!-- SECTION 2: QUALITY PREPROCESSING (+8 cascade) -->
  <rect x="110" y="308" width="1180" height="130" rx="12" fill="url(#preprocess-grad)" filter="url(#shadow)" />
  <rect x="110" y="308" width="1180" height="40" rx="12" fill="#4A90D9" />
  <text x="700" y="333" text-anchor="middle" font-family="Arial, Helvetica, sans-serif" font-size="18"
    font-weight="bold" fill="white">Quality Preprocessing</text>

  <rect x="400" y="363" width="160" height="60" rx="8" fill="url(#card-bg)" stroke="#4A90D9" stroke-width="1.5"
    filter="url(#card-shadow)" />
  <rect x="400" y="371" width="4" height="44" rx="2" fill="#4A90D9" />
  <text x="480" y="391" text-anchor="middle" font-family="Arial, Helvetica, sans-serif" font-size="16"
    font-weight="bold" fill="#1A2A3A">fastp</text>
  <text x="480" y="408" text-anchor="middle" font-family="Arial, Helvetica, sans-serif" font-size="11"
    fill="#5A6A7A">Quality Filtering</text>

  <line x1="600" y1="393" x2="660" y2="393" stroke="#333" stroke-width="2" marker-end="url(#arrow)" />

  <g transform="translate(680, 365)">
    <rect x="0" y="0" width="70" height="6" rx="2" fill="#90EE90" />
    <rect x="3" y="10" width="64" height="6" rx="2" fill="#90EE90" />
    <rect x="1" y="20" width="68" height="6" rx="2" fill="#90EE90" />
    <rect x="5" y="30" width="60" height="6" rx="2" fill="#90EE90" />
    <rect x="2" y="40" width="66" height="6" rx="2" fill="#90EE90" />
    <text x="35" y="60" text-anchor="middle" font-family="Arial, Helvetica, sans-serif" font-size="11"
      fill="white">Filter Reads</text>
  </g>

  <rect x="880" y="373" width="140" height="40" rx="20" fill="rgba(255,255,255,0.2)" stroke="white" stroke-width="1" />
  <text x="950" y="398" text-anchor="middle" font-family="Arial, Helvetica, sans-serif" font-size="12"
    fill="white">fastp filtered reads</text>

  <line x1="700" y1="438" x2="700" y2="478" stroke="#333" stroke-width="2.5" marker-end="url(#arrow)" />

  <!-- SECTION 3: ASSEMBLY & MAPPING (+8 cascade) -->
  <rect x="110" y="488" width="1180" height="190" rx="12" fill="url(#assembly-grad)" filter="url(#shadow)" />
  <rect x="110" y="488" width="1180" height="40" rx="12" fill="#1F6F6F" />
  <text x="700" y="513" text-anchor="middle" font-family="Arial, Helvetica, sans-serif" font-size="18"
    font-weight="bold" fill="white">Assembly &amp; Read Mapping</text>

  <rect x="160" y="548" width="180" height="70" rx="8" fill="url(#card-bg)" stroke="#2E8B8B" stroke-width="1.5"
    filter="url(#card-shadow)" />
  <rect x="160" y="556" width="4" height="54" rx="2" fill="#2E8B8B" />
  <text x="250" y="578" text-anchor="middle" font-family="Arial, Helvetica, sans-serif" font-size="16"
    font-weight="bold" fill="#1A2A3A">MegaHit</text>
  <text x="250" y="596" text-anchor="middle" font-family="Arial, Helvetica, sans-serif" font-size="11"
    fill="#5A6A7A">Metagenome Assembly</text>

  <g transform="translate(380, 563)">
    <rect x="0" y="0" width="100" height="10" rx="3" fill="#87CEEB" opacity="0.8" />
    <rect x="5" y="16" width="90" height="10" rx="3" fill="#4682B4" opacity="0.8" />
    <rect x="0" y="32" width="100" height="10" rx="3" fill="#5F9EA0" opacity="0.8" />
    <rect x="10" y="48" width="80" height="10" rx="3" fill="#4682B4" opacity="0.8" />
    <text x="50" y="72" text-anchor="middle" font-family="Arial, Helvetica, sans-serif" font-size="11"
      fill="white">Assembled Contigs</text>
  </g>

  <line x1="520" y1="593" x2="570" y2="593" stroke="white" stroke-width="2" marker-end="url(#arrow)" />

  <rect x="580" y="548" width="200" height="70" rx="8" fill="url(#card-bg)" stroke="#2E8B8B" stroke-width="1.5"
    filter="url(#card-shadow)" />
  <rect x="580" y="556" width="4" height="54" rx="2" fill="#2E8B8B" />
  <text x="680" y="578" text-anchor="middle" font-family="Arial, Helvetica, sans-serif" font-size="16"
    font-weight="bold" fill="#1A2A3A">Minimap2</text>
  <text x="680" y="596" text-anchor="middle" font-family="Arial, Helvetica, sans-serif" font-size="11"
    fill="#5A6A7A">Multi-sample Alignment</text>

  <rect x="830" y="553" width="180" height="60" rx="8" fill="rgba(255,255,255,0.15)" stroke="white" stroke-width="1" />
  <text x="920" y="578" text-anchor="middle" font-family="Arial, Helvetica, sans-serif" font-size="12"
    font-weight="bold" fill="white">Strata-Limited</text>
  <text x="920" y="596" text-anchor="middle" font-family="Arial, Helvetica, sans-serif" font-size="10"
    fill="white">Binning (default: 15)</text>

  <rect x="830" y="628" width="180" height="35" rx="17" fill="rgba(255,255,255,0.2)" stroke="white" stroke-width="1" />
  <text x="920" y="651" text-anchor="middle" font-family="Arial, Helvetica, sans-serif" font-size="11"
    fill="white">minimap2 sorted BAM files</text>

  <rect x="1080" y="553" width="170" height="35" rx="17" fill="rgba(255,255,255,0.15)" stroke="white"
    stroke-width="1" />
  <text x="1165" y="576" text-anchor="middle" font-family="Arial, Helvetica, sans-serif" font-size="11"
    fill="white">megahit assembled contigs</text>

  <line x1="700" y1="678" x2="700" y2="718" stroke="#333" stroke-width="2.5" marker-end="url(#arrow)" />

  <!-- SECTION 4: PARALLEL BINNING (+8 cascade) -->
  <rect x="110" y="728" width="1180" height="210" rx="12" fill="url(#binning-grad)" filter="url(#shadow)" />
  <rect x="110" y="728" width="1180" height="40" rx="12" fill="#B8552A" />
  <text x="700" y="753" text-anchor="middle" font-family="Arial, Helvetica, sans-serif" font-size="18"
    font-weight="bold" fill="white">Parallel Binning</text>

  <!-- VAMB -->
  <rect x="140" y="783" width="300" height="130" rx="10" fill="url(#card-bg)" stroke="#E8834A" stroke-width="1.5"
    filter="url(#card-shadow)" />
  <rect x="140" y="783" width="300" height="35" rx="10" fill="#E8834A" />
  <text x="290" y="806" text-anchor="middle" font-family="Arial, Helvetica, sans-serif" font-size="15"
    font-weight="bold" fill="white">VAMB</text>

  <g transform="translate(230, 828)">
    <circle cx="20" cy="0" r="8" fill="#E8834A" opacity="0.6" />
    <circle cx="20" cy="20" r="8" fill="#E8834A" opacity="0.6" />
    <circle cx="20" cy="40" r="8" fill="#E8834A" opacity="0.6" />
    <circle cx="60" cy="10" r="8" fill="#E8834A" opacity="0.8" />
    <circle cx="60" cy="30" r="8" fill="#E8834A" opacity="0.8" />
    <circle cx="100" cy="20" r="8" fill="#E8834A" />
    <line x1="28" y1="5" x2="52" y2="12" stroke="#E8834A" stroke-width="1" opacity="0.4" />
    <line x1="28" y1="25" x2="52" y2="12" stroke="#E8834A" stroke-width="1" opacity="0.4" />
    <line x1="28" y1="25" x2="52" y2="28" stroke="#E8834A" stroke-width="1" opacity="0.4" />
    <line x1="28" y1="45" x2="52" y2="28" stroke="#E8834A" stroke-width="1" opacity="0.4" />
    <line x1="68" y1="15" x2="92" y2="18" stroke="#E8834A" stroke-width="1" opacity="0.4" />
    <line x1="68" y1="35" x2="92" y2="22" stroke="#E8834A" stroke-width="1" opacity="0.4" />
  </g>
  <text x="290" y="900" text-anchor="middle" font-family="Arial, Helvetica, sans-serif" font-size="11"
    fill="#5A6A7A">Variational Autoencoder</text>

  <!-- SemiBin2 -->
  <rect x="490" y="783" width="300" height="130" rx="10" fill="url(#card-bg)" stroke="#D4943C" stroke-width="1.5"
    filter="url(#card-shadow)" />
  <rect x="490" y="783" width="300" height="35" rx="10" fill="#D4943C" />
  <text x="640" y="806" text-anchor="middle" font-family="Arial, Helvetica, sans-serif" font-size="15"
    font-weight="bold" fill="white">SemiBin2</text>

  <g transform="translate(545, 828)">
    <circle cx="40" cy="10" r="8" fill="#D4943C" opacity="0.6" />
    <circle cx="70" cy="5" r="8" fill="#D4943C" opacity="0.7" />
    <circle cx="65" cy="35" r="8" fill="#D4943C" opacity="0.7" />
    <circle cx="100" cy="20" r="8" fill="#D4943C" opacity="0.8" />
    <circle cx="130" cy="15" r="8" fill="#D4943C" />
    <line x1="48" y1="12" x2="62" y2="8" stroke="#D4943C" stroke-width="1.5" opacity="0.5" />
    <line x1="48" y1="15" x2="58" y2="32" stroke="#D4943C" stroke-width="1.5" opacity="0.5" />
    <line x1="78" y1="10" x2="92" y2="17" stroke="#D4943C" stroke-width="1.5" opacity="0.5" />
    <line x1="73" y1="40" x2="92" y2="23" stroke="#D4943C" stroke-width="1.5" opacity="0.5" />
    <line x1="108" y1="18" x2="122" y2="16" stroke="#D4943C" stroke-width="1.5" opacity="0.5" />
  </g>
  <text x="640" y="900" text-anchor="middle" font-family="Arial, Helvetica, sans-serif" font-size="11"
    fill="#5A6A7A">Graph Neural Network</text>

  <!-- MetaBat 2 -->
  <rect x="840" y="783" width="300" height="130" rx="10" fill="url(#card-bg)" stroke="#C07030" stroke-width="1.5"
    filter="url(#card-shadow)" />
  <rect x="840" y="783" width="300" height="35" rx="10" fill="#C07030" />
  <text x="990" y="806" text-anchor="middle" font-family="Arial, Helvetica, sans-serif" font-size="15"
    font-weight="bold" fill="white">MetaBat 2</text>

  <g transform="translate(885, 828)">
    <rect x="45" y="25" width="30" height="20" rx="3" fill="#C07030" opacity="0.4" />
    <rect x="70" y="15" width="30" height="30" rx="3" fill="#C07030" opacity="0.5" />
    <rect x="95" y="5" width="30" height="40" rx="3" fill="#C07030" opacity="0.6" />
    <rect x="120" y="10" width="30" height="35" rx="3" fill="#C07030" opacity="0.7" />
    <rect x="145" y="20" width="30" height="25" rx="3" fill="#C07030" opacity="0.8" />
    <line x1="45" y1="0" x2="175" y2="0" stroke="#C07030" stroke-width="3" />
  </g>
  <text x="995" y="900" text-anchor="middle" font-family="Arial, Helvetica, sans-serif" font-size="11"
    fill="#5A6A7A">Sequence + Coverage</text>


  <line x1="700" y1="938" x2="700" y2="978" stroke="#333" stroke-width="2.5" marker-end="url(#arrow)" />

  <!-- SECTION 5: CONSENSUS BIN REFINEMENT (+8 cascade, +20 height for padding) -->
  <rect x="110" y="988" width="1180" height="240" rx="12" fill="url(#refinement-grad)" filter="url(#shadow)" />
  <rect x="110" y="988" width="1180" height="40" rx="12" fill="#4A7A49" />
  <text x="700" y="1013" text-anchor="middle" font-family="Arial, Helvetica, sans-serif" font-size="18"
    font-weight="bold" fill="white">Consensus Bin Refinement</text>

  <!-- Input bins (+20 padding from title) -->
  <g transform="translate(200, 1068)">
    <circle cx="20" cy="20" r="18" fill="#E8834A" opacity="0.7" stroke="#333" stroke-width="1" />
    <text x="20" y="25" text-anchor="middle" font-family="Arial, Helvetica, sans-serif" font-size="9"
      fill="white">V</text>
    <circle cx="60" cy="20" r="18" fill="#D4943C" opacity="0.7" stroke="#333" stroke-width="1" />
    <text x="60" y="25" text-anchor="middle" font-family="Arial, Helvetica, sans-serif" font-size="9"
      fill="white">S</text>
    <circle cx="100" cy="20" r="18" fill="#C07030" opacity="0.7" stroke="#333" stroke-width="1" />
    <text x="100" y="25" text-anchor="middle" font-family="Arial, Helvetica, sans-serif" font-size="9"
      fill="white">M</text>
    <text x="60" y="55" text-anchor="middle" font-family="Arial, Helvetica, sans-serif" font-size="11"
      fill="white">Initial Bins</text>
  </g>

  <line x1="340" y1="1085" x2="440" y2="1085" stroke="white" stroke-width="2" marker-end="url(#arrow)" />

  <!-- Binette (+20 padding) -->
  <rect x="450" y="1050" width="220" height="70" rx="10" fill="url(#card-bg)" stroke="#5B8C5A" stroke-width="1.5"
    filter="url(#card-shadow)" />
  <rect x="450" y="1058" width="4" height="54" rx="2" fill="#5B8C5A" />
  <text x="560" y="1080" text-anchor="middle" font-family="Arial, Helvetica, sans-serif" font-size="16"
    font-weight="bold" fill="#1A2A3A">Binette</text>
  <text x="560" y="1098" text-anchor="middle" font-family="Arial, Helvetica, sans-serif" font-size="11"
    fill="#5A6A7A">Consensus + Dereplication</text>

  <line x1="710" y1="1085" x2="770" y2="1085" stroke="white" stroke-width="2" marker-end="url(#arrow)" />

  <!-- Merged bins -->
  <g transform="translate(790, 1055)">
    <circle cx="20" cy="15" r="22" fill="#E8834A" opacity="0.4" stroke="#333" stroke-width="1" />
    <circle cx="45" cy="15" r="22" fill="#D4943C" opacity="0.4" stroke="#333" stroke-width="1" />
    <circle cx="33" cy="30" r="22" fill="#C07030" opacity="0.4" stroke="#333" stroke-width="1" />
    <text x="33" y="60" text-anchor="middle" font-family="Arial, Helvetica, sans-serif" font-size="11"
      fill="white">Merged Best-Bins</text>
  </g>

  <line x1="900" y1="1085" x2="960" y2="1085" stroke="white" stroke-width="2" marker-end="url(#arrow)" />

  <!-- Final MAG -->
  <g transform="translate(980, 1055)">
    <circle cx="30" cy="30" r="25" fill="#5B8C5A" opacity="0.8" stroke="white" stroke-width="2" />
    <text x="30" y="35" text-anchor="middle" font-family="Arial, Helvetica, sans-serif" font-size="10"
      font-weight="bold" fill="white">MAG</text>
    <text x="30" y="70" text-anchor="middle" font-family="Arial, Helvetica, sans-serif" font-size="11"
      fill="white">Refined MAGs</text>
  </g>

  <!-- CheckM2 and outputs -->
  <rect x="310" y="1155" width="180" height="35" rx="17" fill="rgba(255,255,255,0.2)" stroke="white" stroke-width="1" />
  <text x="400" y="1178" text-anchor="middle" font-family="Arial, Helvetica, sans-serif" font-size="11"
    fill="white">CheckM2 Quality Report</text>

  <rect x="800" y="1155" width="260" height="35" rx="17" fill="rgba(255,255,255,0.15)" stroke="white"
    stroke-width="1" />
  <text x="930" y="1178" text-anchor="middle" font-family="Arial, Helvetica, sans-serif" font-size="11"
    fill="white">Individual MAGs + Refined Bins</text>

  <line x1="700" y1="1228" x2="700" y2="1268" stroke="#333" stroke-width="2.5" marker-end="url(#arrow)" />

  <!-- SECTION 6: DOWNSTREAM ANALYSIS (+8 cascade) -->
  <rect x="110" y="1278" width="1180" height="230" rx="12" fill="url(#analysis-grad)" filter="url(#shadow)" />
  <rect x="110" y="1278" width="1180" height="40" rx="12" fill="#6A4E96" />
  <text x="700" y="1303" text-anchor="middle" font-family="Arial, Helvetica, sans-serif" font-size="18"
    font-weight="bold" fill="white">Identification &amp; Classification &amp; Abundance</text>

  <!-- geNomad -->
  <rect x="120" y="1358" width="250" height="120" rx="10" fill="url(#card-bg)" stroke="#9B59B6" stroke-width="1.5"
    filter="url(#card-shadow)" />
  <rect x="120" y="1338" width="250" height="35" rx="10" fill="#9B59B6" />
  <text x="245" y="1361" text-anchor="middle" font-family="Arial, Helvetica, sans-serif" font-size="14"
    font-weight="bold" fill="white">geNomad</text>

  <g transform="translate(200, 1383)">
    <polygon points="30,5 50,15 50,35 30,45 10,35 10,15" fill="none" stroke="#9B59B6" stroke-width="2" />
    <line x1="30" y1="5" x2="30" y2="0" stroke="#9B59B6" stroke-width="1.5" />
    <line x1="50" y1="15" x2="55" y2="12" stroke="#9B59B6" stroke-width="1.5" />
    <line x1="50" y1="35" x2="55" y2="38" stroke="#9B59B6" stroke-width="1.5" />
    <circle cx="75" cy="25" r="15" fill="none" stroke="#9B59B6" stroke-width="2" stroke-dasharray="4,2" />
  </g>
  <text x="245" y="1466" text-anchor="middle" font-family="Arial, Helvetica, sans-serif" font-size="10"
    fill="#5A6A7A">Mobile Genetic Elements</text>

  <!-- AMRFinderPlus -->
  <rect x="410" y="1358" width="250" height="120" rx="10" fill="url(#card-bg)" stroke="#8E44AD" stroke-width="1.5"
    filter="url(#card-shadow)" />
  <rect x="410" y="1338" width="250" height="35" rx="10" fill="#8E44AD" />
  <text x="535" y="1361" text-anchor="middle" font-family="Arial, Helvetica, sans-serif" font-size="14"
    font-weight="bold" fill="white">AMRFinderPlus</text>

  <g transform="translate(505, 1383)">
    <path d="M30,5 L50,15 L50,30 C50,40 40,48 30,50 C20,48 10,40 10,30 L10,15 Z" fill="none" stroke="#8E44AD"
      stroke-width="2" />
    <line x1="22" y1="22" x2="38" y2="38" stroke="#E74C3C" stroke-width="2.5" />
  </g>
  <text x="535" y="1466" text-anchor="middle" font-family="Arial, Helvetica, sans-serif" font-size="10"
    fill="#5A6A7A">Antimicrobial Resistance</text>

  <!-- GTDB-Tk -->
  <rect x="700" y="1358" width="250" height="120" rx="10" fill="url(#card-bg)" stroke="#7D3C98" stroke-width="1.5"
    filter="url(#card-shadow)" />
  <rect x="700" y="1338" width="250" height="35" rx="10" fill="#7D3C98" />
  <text x="825" y="1361" text-anchor="middle" font-family="Arial, Helvetica, sans-serif" font-size="14"
    font-weight="bold" fill="white">GTDB-Tk</text>

  <g transform="translate(790, 1383)">
    <circle cx="30" cy="5" r="6" fill="#7D3C98" opacity="0.8" />
    <line x1="30" y1="11" x2="15" y2="25" stroke="#7D3C98" stroke-width="1.5" />
    <line x1="30" y1="11" x2="45" y2="25" stroke="#7D3C98" stroke-width="1.5" />
    <circle cx="15" cy="28" r="5" fill="#7D3C98" opacity="0.6" />
    <circle cx="45" cy="28" r="5" fill="#7D3C98" opacity="0.6" />
    <line x1="15" y1="33" x2="8" y2="45" stroke="#7D3C98" stroke-width="1" />
    <line x1="15" y1="33" x2="22" y2="45" stroke="#7D3C98" stroke-width="1" />
    <line x1="45" y1="33" x2="38" y2="45" stroke="#7D3C98" stroke-width="1" />
    <line x1="45" y1="33" x2="52" y2="45" stroke="#7D3C98" stroke-width="1" />
    <circle cx="8" cy="48" r="4" fill="#5B8C5A" opacity="0.6" />
    <circle cx="22" cy="48" r="4" fill="#5B8C5A" opacity="0.6" />
    <circle cx="38" cy="48" r="4" fill="#5B8C5A" opacity="0.6" />
    <circle cx="52" cy="48" r="4" fill="#5B8C5A" opacity="0.6" />
  </g>
  <text x="825" y="1466" text-anchor="middle" font-family="Arial, Helvetica, sans-serif" font-size="10"
    fill="#5A6A7A">Taxonomic Classification</text>

  <!-- CoverM -->
  <rect x="990" y="1358" width="250" height="120" rx="10" fill="url(#card-bg)" stroke="#6C3483" stroke-width="1.5"
    filter="url(#card-shadow)" />
  <rect x="990" y="1338" width="250" height="35" rx="10" fill="#6C3483" />
  <text x="1115" y="1361" text-anchor="middle" font-family="Arial, Helvetica, sans-serif" font-size="14"
    font-weight="bold" fill="white">CoverM</text>

  <g transform="translate(1070, 1383)">
    <rect x="0" y="30" width="15" height="20" rx="2" fill="#6C3483" opacity="0.3" />
    <rect x="18" y="20" width="15" height="30" rx="2" fill="#6C3483" opacity="0.4" />
    <rect x="36" y="10" width="15" height="40" rx="2" fill="#6C3483" opacity="0.5" />
    <rect x="54" y="15" width="15" height="35" rx="2" fill="#6C3483" opacity="0.6" />
    <rect x="72" y="5" width="15" height="45" rx="2" fill="#6C3483" opacity="0.7" />
    <line x1="0" y1="52" x2="87" y2="52" stroke="#6C3483" stroke-width="1" />
  </g>
  <text x="1115" y="1466" text-anchor="middle" font-family="Arial, Helvetica, sans-serif" font-size="10"
    fill="#5A6A7A">Abundance Mapping</text>


  <line x1="700" y1="1508" x2="700" y2="1548" stroke="#333" stroke-width="2.5" marker-end="url(#arrow)" />

  <!-- SECTION 7: RESULT AGGREGATION (+8 cascade) -->
  <rect x="110" y="1558" width="1180" height="150" rx="12" fill="url(#results-grad)" filter="url(#shadow)" />
  <rect x="110" y="1558" width="1180" height="40" rx="12" fill="#3A5F8F" />
  <text x="700" y="1583" text-anchor="middle" font-family="Arial, Helvetica, sans-serif" font-size="18"
    font-weight="bold" fill="white">Results Aggregation &amp; Report Generation</text>

  <rect x="140" y="1608" width="220" height="70" rx="8" fill="url(#card-bg)" stroke="#4A6FA5" stroke-width="1.5"
    filter="url(#card-shadow)" />
  <rect x="140" y="1616" width="4" height="54" rx="2" fill="#4A6FA5" />
  <text x="250" y="1638" text-anchor="middle" font-family="Arial, Helvetica, sans-serif" font-size="14"
    font-weight="bold" fill="#1A2A3A">MAGGIC Results</text>
  <text x="250" y="1656" text-anchor="middle" font-family="Arial, Helvetica, sans-serif" font-size="11"
    fill="#5A6A7A">Results Aggregation</text>

  <line x1="400" y1="1643" x2="460" y2="1643" stroke="#333" stroke-width="2" marker-end="url(#arrow)" />

  <rect x="470" y="1608" width="220" height="70" rx="8" fill="url(#card-bg)" stroke="#4A6FA5" stroke-width="1.5"
    filter="url(#card-shadow)" />
  <rect x="470" y="1616" width="4" height="54" rx="2" fill="#4A6FA5" />
  <text x="580" y="1638" text-anchor="middle" font-family="Arial, Helvetica, sans-serif" font-size="14"
    font-weight="bold" fill="#1A2A3A">Table Summary</text>
  <text x="580" y="1656" text-anchor="middle" font-family="Arial, Helvetica, sans-serif" font-size="11"
    fill="#5A6A7A">TSV / YAML Output</text>

  <line x1="730" y1="1643" x2="790" y2="1643" stroke="#333" stroke-width="2" marker-end="url(#arrow)" />

  <rect x="800" y="1608" width="220" height="70" rx="8" fill="url(#card-bg)" stroke="#4A6FA5" stroke-width="1.5"
    filter="url(#card-shadow)" />
  <rect x="800" y="1616" width="4" height="54" rx="2" fill="#4A6FA5" />
  <text x="910" y="1638" text-anchor="middle" font-family="Arial, Helvetica, sans-serif" font-size="14"
    font-weight="bold" fill="#1A2A3A">MultiQC</text>
  <text x="910" y="1656" text-anchor="middle" font-family="Arial, Helvetica, sans-serif" font-size="11"
    fill="#5A6A7A">HTML Report</text>

  <rect x="1060" y="1608" width="200" height="70" rx="8" fill="url(#card-bg)" stroke="#4A6FA5" stroke-width="1.5"
    filter="url(#card-shadow)" />
  <rect x="1060" y="1616" width="4" height="54" rx="2" fill="#4A6FA5" />
  <text x="1160" y="1638" text-anchor="middle" font-family="Arial, Helvetica, sans-serif" font-size="14"
    font-weight="bold" fill="#1A2A3A">Software Versions</text>
  <text x="1160" y="1656" text-anchor="middle" font-family="Arial, Helvetica, sans-serif" font-size="11"
    fill="#5A6A7A">YML Collection</text>



  <!-- SECTION 8: OUTPUT (+8 cascade) -->
  <rect x="110" y="1758" width="1180" height="180" rx="12" fill="url(#input-grad)" filter="url(#shadow)" />
  <rect x="110" y="1758" width="1180" height="40" rx="12" fill="#357ABD" />
  <text x="700" y="1783" text-anchor="middle" font-family="Arial, Helvetica, sans-serif" font-size="18"
    font-weight="bold" fill="white">Output</text>

  <g font-family="Arial, Helvetica, sans-serif" font-size="11" fill="white">
    <rect x="140" y="1808" width="240" height="28" rx="6" fill="rgba(255,255,255,0.15)" />
    <text x="155" y="1827">fastp/ - Filtered Reads</text>

    <rect x="140" y="1843" width="240" height="28" rx="6" fill="rgba(255,255,255,0.15)" />
    <text x="155" y="1862">megahit_assemble/ - Assemblies</text>

    <rect x="430" y="1808" width="240" height="28" rx="6" fill="rgba(255,255,255,0.15)" />
    <text x="445" y="1827">minimap2_align/ - Alignments</text>

    <rect x="430" y="1843" width="240" height="28" rx="6" fill="rgba(255,255,255,0.15)" />
    <text x="445" y="1862">binette/ - Refined Bins</text>

    <rect x="140" y="1878" width="240" height="28" rx="6" fill="rgba(255,255,255,0.15)" />
    <text x="155" y="1897">vamb/ + semibin2/ + metabat2/</text>

    <rect x="720" y="1808" width="240" height="28" rx="6" fill="rgba(255,255,255,0.15)" />
    <text x="735" y="1827">gtdbtk/ - Taxonomy</text>

    <rect x="720" y="1843" width="240" height="28" rx="6" fill="rgba(255,255,255,0.15)" />
    <text x="735" y="1862">genomad_endtoend/ - MGE Detection</text>

    <rect x="720" y="1878" width="240" height="28" rx="6" fill="rgba(255,255,255,0.15)" />
    <text x="735" y="1897">amrfinderplus/ - AMR</text>

    <rect x="1010" y="1808" width="240" height="28" rx="6" fill="rgba(255,255,255,0.15)" />
    <text x="1025" y="1827">coverm_genome/ - Abundace</text>

    <rect x="1010" y="1843" width="240" height="28" rx="6" fill="rgba(255,255,255,0.15)" />
    <text x="1025" y="1862">maggic_results/ - Aggregated TSVs</text>

    <rect x="1010" y="1878" width="240" height="28" rx="6" fill="rgba(255,255,255,0.25)" />
    <text x="1025" y="1897" font-weight="bold">multiqc/ - HTML Report</text>
  </g>

  <!-- KEY FEATURES LEGEND (+8 cascade) -->
  <rect x="110" y="1988" width="1180" height="145" rx="10" fill="#F0F2F5" stroke="#DDD" stroke-width="1" />
  <text x="700" y="2020" text-anchor="middle" font-family="Arial, Helvetica, sans-serif" font-size="14"
    font-weight="bold" fill="#333">Key Features</text>

  <g font-family="Arial, Helvetica, sans-serif" font-size="11">
    <circle cx="170" cy="2048" r="6" fill="#E8834A" opacity="0.7" />
    <text x="186" y="2053">Triple-binning consensus (VAMB + SemiBin2 + MetaBat 2)</text>

    <circle cx="170" cy="2073" r="6" fill="#2E8B8B" opacity="0.7" />
    <text x="186" y="2078">Failed sample monitoring with probable reason(s).</text>

    <circle cx="170" cy="2098" r="6" fill="#5B8C5A" opacity="0.7" />
    <text x="186" y="2103">Binette consensus refinement with CheckM2 quality assessment</text>

    <circle cx="750" cy="2048" r="6" fill="#7B5EA7" opacity="0.7" />
    <text x="766" y="2053">Integrated downstream: geNomad + AMRFinderPlus + GTDB-Tk + CoverM</text>

    <circle cx="750" cy="2073" r="6" fill="#4A6FA5" opacity="0.7" />
    <text x="766" y="2078">Automated reporting with MultiQC and consolidated TSV summaries</text>

    <circle cx="750" cy="2098" r="6" fill="#90EE90" opacity="0.7" />
    <text x="766" y="2103">Strata-limited multi-sample binning (reduces N-squared alignment; Default: 15 samples per
      assembly)</text>
  </g>

  <!-- BOTTOM LABEL (+8 cascade) -->
  <text x="700" y="2178" text-anchor="middle" font-family="Arial, Helvetica, sans-serif" font-size="10"
    fill="#999">MAGGIC - Metagenomically Assembled Genome Generation with Integrated Classification</text>
  <text x="700" y="2198" text-anchor="middle" font-family="Arial, Helvetica, sans-serif" font-size="10"
    fill="#999">Built by Kranti Konganti using Nextflow with CPIPES Framework | HFP, FDA</text>
</svg>